#define 7b4c6feafa524057fbf579d5bbf57346nTyZRvyjpi1URWEm_width 300
#define 7b4c6feafa524057fbf579d5bbf57346nTyZRvyjpi1URWEm_height 187
static char 7b4c6feafa524057fbf579d5bbf57346nTyZRvyjpi1URWEm_bits[] = {
  0x00, 0x00, 0x00, 0x00, 0x00, 0x00, 0x00, 0x00, 0x00, 0x00, 0x00, 0x00, 
  0x00, 0x00, 0x00, 0x00, 0x00, 0x00, 0x00, 0x00, 0x00, 0x00, 0x00, 0x00, 
  0x00, 0x00, 0x00, 0x00, 0x00, 0x00, 0x00, 0x00, 0x00, 0x00, 0x00, 0x00, 
  0x00, 0x00, 0x00, 0x00, 0x00, 0x00, 0x00, 0x00, 0x00, 0x00, 0x00, 0x00, 
  0x00, 0x00, 0x00, 0x00, 0x00, 0x00, 0x00, 0x00, 0x00, 0x00, 0x00, 0x00, 
  0x00, 0x00, 0x00, 0x00, 0x00, 0x00, 0x00, 0x00, 0x00, 0x00, 0x00, 0x00, 
  0x00, 0x00, 0x00, 0x00, 0x00, 0x00, 0x00, 0x00, 0x00, 0x00, 0x00, 0x00, 
  0x00, 0x00, 0x00, 0x00, 0x00, 0x00, 0x00, 0x00, 0x00, 0x00, 0x00, 0x00, 
  0x00, 0x00, 0x00, 0x00, 0x00, 0x00, 0x00, 0x00, 0x00, 0x00, 0x00, 0x00, 
  0x00, 0x00, 0x00, 0x00, 0x00, 0x00, 0x00, 0x00, 0x00, 0x00, 0x00, 0x00, 
  0x00, 0x00, 0x00, 0x00, 0x00, 0x00, 0x00, 0x00, 0x00, 0x00, 0x00, 0x00, 
  0x00, 0x00, 0x00, 0x00, 0x00, 0x00, 0x00, 0x00, 0x00, 0x00, 0x00, 0x00, 
  0x00, 0x00, 0x00, 0x00, 0x00, 0x00, 0x00, 0x00, 0x00, 0x00, 0x00, 0x00, 
  0x00, 0x00, 0x00, 0x00, 0x00, 0x00, 0x00, 0x00, 0x00, 0x00, 0x00, 0x00, 
  0x00, 0x00, 0x00, 0x00, 0x00, 0x00, 0x00, 0x00, 0x00, 0x00, 0x00, 0x00, 
  0x00, 0x00, 0x00, 0x00, 0x00, 0x00, 0x00, 0x00, 0x00, 0x00, 0x00, 0x00, 
  0x00, 0x00, 0x00, 0x00, 0x00, 0x00, 0x00, 0x00, 0x00, 0x00, 0x00, 0x00, 
  0x00, 0x00, 0x00, 0x00, 0x00, 0x00, 0x00, 0x00, 0x00, 0x00, 0x00, 0x00, 
  0x00, 0x00, 0x00, 0x00, 0x00, 0x00, 0x00, 0x00, 0x00, 0x00, 0x00, 0x00, 
  0x00, 0x00, 0x00, 0x00, 0x00, 0x00, 0x00, 0x00, 0x00, 0x00, 0x00, 0x00, 
  0x00, 0x00, 0x00, 0x00, 0x00, 0x00, 0x00, 0x00, 0x00, 0x00, 0x00, 0x00, 
  0x00, 0x00, 0x00, 0x00, 0x00, 0x00, 0x00, 0x00, 0x00, 0x00, 0x00, 0x00, 
  0x00, 0x00, 0x00, 0x00, 0x00, 0x00, 0x00, 0x00, 0x00, 0x00, 0x00, 0x00, 
  0x00, 0x00, 0x00, 0x00, 0x00, 0x00, 0x00, 0x00, 0x00, 0x00, 0x00, 0x00, 
  0x00, 0x00, 0x00, 0x00, 0x00, 0x00, 0x00, 0x00, 0x00, 0x00, 0x00, 0x00, 
  0x00, 0x00, 0x00, 0x00, 0x00, 0x00, 0x00, 0x00, 0x00, 0x00, 0x00, 0x00, 
  0x00, 0x00, 0x00, 0x00, 0x00, 0x00, 0x00, 0x00, 0x00, 0x00, 0x00, 0x00, 
  0x00, 0x00, 0x00, 0x00, 0x00, 0x00, 0x00, 0x00, 0x00, 0x00, 0x00, 0x00, 
  0x00, 0x00, 0x00, 0x00, 0x00, 0x00, 0x00, 0x00, 0x00, 0x00, 0x00, 0x00, 
  0x00, 0x00, 0x00, 0x00, 0x00, 0x00, 0x00, 0x00, 0x00, 0x00, 0x00, 0x00, 
  0x00, 0x00, 0x00, 0x00, 0x00, 0x00, 0x00, 0x00, 0x00, 0x00, 0x00, 0x00, 
  0x00, 0x00, 0x00, 0x00, 0x00, 0x00, 0x00, 0x00, 0x00, 0x00, 0x00, 0x00, 
  0x00, 0x00, 0x00, 0x00, 0x00, 0x00, 0x00, 0x00, 0x00, 0x00, 0x00, 0x00, 
  0x00, 0x00, 0x00, 0x00, 0x00, 0x00, 0x00, 0x00, 0x00, 0x00, 0x00, 0x00, 
  0x00, 0x00, 0x00, 0x00, 0x00, 0x00, 0x00, 0x00, 0x00, 0x00, 0x00, 0x00, 
  0x00, 0x00, 0x00, 0x00, 0x00, 0x00, 0x00, 0x00, 0x00, 0x00, 0x00, 0x00, 
  0x00, 0x00, 0x00, 0x00, 0x00, 0x00, 0x00, 0x00, 0x00, 0x00, 0x00, 0x00, 
  0x00, 0x00, 0x00, 0x00, 0x00, 0x00, 0x00, 0x00, 0x00, 0x00, 0x00, 0x00, 
  0x00, 0x00, 0x00, 0x00, 0x00, 0x00, 0x00, 0x00, 0x00, 0x00, 0x00, 0x00, 
  0x00, 0x00, 0x00, 0x00, 0x00, 0x00, 0x00, 0x00, 0x00, 0x00, 0x00, 0x00, 
  0x00, 0x00, 0x00, 0x00, 0x00, 0x00, 0x00, 0x00, 0x00, 0x00, 0x00, 0x00, 
  0x00, 0x00, 0x00, 0x00, 0x00, 0x00, 0x00, 0x00, 0x00, 0x00, 0x00, 0x00, 
  0x00, 0x00, 0x00, 0x00, 0x00, 0x00, 0x00, 0x00, 0x00, 0x00, 0x00, 0x00, 
  0x00, 0x00, 0x00, 0x00, 0x00, 0x00, 0x00, 0x00, 0x00, 0x00, 0x00, 0x00, 
  0x00, 0x00, 0x00, 0x00, 0x00, 0x00, 0x00, 0x00, 0x00, 0x00, 0x00, 0x00, 
  0x00, 0x00, 0x00, 0x00, 0x00, 0x00, 0x00, 0x00, 0x00, 0x00, 0x00, 0x00, 
  0x00, 0x00, 0x00, 0x00, 0x00, 0x00, 0x00, 0x00, 0x00, 0x00, 0x00, 0x00, 
  0x00, 0x00, 0x00, 0x00, 0x00, 0x00, 0x00, 0x00, 0x00, 0x00, 0x00, 0x00, 
  0x00, 0x00, 0x00, 0x00, 0x00, 0x00, 0x00, 0x00, 0x00, 0x00, 0x00, 0x00, 
  0x00, 0x00, 0x00, 0x00, 0x00, 0x00, 0x00, 0x00, 0x00, 0x00, 0x00, 0x00, 
  0x00, 0x00, 0x00, 0x00, 0x00, 0x00, 0x00, 0x00, 0x00, 0x00, 0x00, 0x00, 
  0x00, 0x00, 0x00, 0x00, 0x00, 0x00, 0x00, 0x00, 0x00, 0x00, 0x00, 0x00, 
  0x00, 0x00, 0x00, 0x00, 0x00, 0x00, 0x00, 0x00, 0x00, 0x00, 0x00, 0x00, 
  0x00, 0x00, 0x00, 0x00, 0x00, 0x00, 0x00, 0x00, 0x00, 0x00, 0x00, 0x00, 
  0x00, 0x00, 0x00, 0x00, 0x00, 0x00, 0x00, 0x00, 0x00, 0x00, 0x00, 0x00, 
  0x00, 0x00, 0x00, 0x00, 0x00, 0x00, 0x00, 0x00, 0x00, 0x00, 0x00, 0x00, 
  0x00, 0x00, 0x00, 0x00, 0x00, 0x00, 0x00, 0x00, 0x00, 0x00, 0x00, 0x00, 
  0x00, 0x00, 0x00, 0x00, 0x00, 0x00, 0x00, 0x00, 0x00, 0x00, 0x00, 0x00, 
  0x00, 0x00, 0x00, 0x00, 0x00, 0x00, 0x00, 0x00, 0x00, 0x00, 0x00, 0x00, 
  0x00, 0x00, 0x00, 0x00, 0x00, 0x00, 0x00, 0x00, 0x00, 0x00, 0x00, 0x00, 
  0x00, 0x00, 0x00, 0x00, 0x00, 0x00, 0x00, 0x00, 0x00, 0x00, 0x00, 0x00, 
  0x00, 0x00, 0x00, 0x00, 0x00, 0x00, 0x00, 0x00, 0x00, 0x00, 0x00, 0x00, 
  0x00, 0x00, 0x00, 0x00, 0x00, 0x00, 0x00, 0x00, 0x00, 0x00, 0x00, 0x00, 
  0x00, 0x00, 0x00, 0x00, 0x00, 0x00, 0x00, 0x00, 0x00, 0x00, 0x00, 0x00, 
  0x00, 0x00, 0x00, 0x00, 0x00, 0x00, 0x00, 0x00, 0x00, 0x00, 0x00, 0x00, 
  0x00, 0x00, 0x00, 0x00, 0x00, 0x00, 0x00, 0x00, 0x00, 0x00, 0x00, 0x00, 
  0x00, 0x00, 0x00, 0x00, 0x00, 0x00, 0x00, 0x00, 0x00, 0x00, 0x00, 0x00, 
  0x00, 0x00, 0x00, 0x00, 0x00, 0x00, 0x00, 0x00, 0x00, 0x00, 0x00, 0x00, 
  0x00, 0x00, 0x00, 0x00, 0x00, 0x00, 0x00, 0x00, 0x00, 0x00, 0x00, 0x00, 
  0x00, 0x00, 0x00, 0x00, 0x00, 0x00, 0x00, 0x00, 0x00, 0x00, 0x00, 0x00, 
  0x00, 0x00, 0x00, 0x00, 0x00, 0x00, 0x00, 0x00, 0x00, 0x00, 0x00, 0x00, 
  0x00, 0x00, 0x00, 0x00, 0x00, 0x00, 0x00, 0x00, 0x00, 0x00, 0x00, 0x00, 
  0x00, 0x00, 0x00, 0x00, 0x00, 0x00, 0x00, 0x00, 0x00, 0x00, 0x00, 0x00, 
  0x00, 0x00, 0x00, 0x00, 0x00, 0x00, 0x00, 0x00, 0x00, 0x00, 0x00, 0x00, 
  0x00, 0x00, 0x00, 0x00, 0x00, 0x00, 0x00, 0x00, 0x00, 0x00, 0x00, 0x00, 
  0x00, 0x00, 0x00, 0x00, 0x00, 0x00, 0x00, 0x00, 0x00, 0x00, 0x00, 0x00, 
  0x00, 0x00, 0x00, 0x00, 0x00, 0x00, 0x00, 0x00, 0x00, 0x00, 0x00, 0x00, 
  0x00, 0x00, 0x00, 0x00, 0x00, 0x00, 0x00, 0x00, 0x00, 0x00, 0x00, 0x00, 
  0x00, 0x00, 0x00, 0x00, 0x00, 0x00, 0x00, 0x00, 0x00, 0x00, 0x00, 0x00, 
  0x00, 0x00, 0x00, 0x00, 0x00, 0x00, 0x00, 0x00, 0x00, 0x00, 0x00, 0x00, 
  0x00, 0x00, 0x00, 0x00, 0x00, 0x00, 0x00, 0x00, 0x00, 0x00, 0x00, 0x00, 
  0x00, 0x00, 0x00, 0x00, 0x00, 0x00, 0x00, 0x00, 0x00, 0x00, 0x00, 0x00, 
  0x00, 0x00, 0x00, 0x00, 0x00, 0x00, 0x00, 0x00, 0x00, 0x00, 0x00, 0x00, 
  0x00, 0x00, 0x00, 0x00, 0x00, 0x00, 0x00, 0x00, 0x00, 0x00, 0x00, 0x00, 
  0x00, 0x00, 0x00, 0x00, 0x00, 0x00, 0x00, 0x00, 0x00, 0x00, 0x00, 0x00, 
  0x00, 0x00, 0x00, 0x00, 0x00, 0x00, 0x00, 0x00, 0x00, 0x00, 0x00, 0x00, 
  0x00, 0x00, 0x00, 0x00, 0x00, 0x00, 0x00, 0x00, 0x00, 0x00, 0x00, 0x00, 
  0x00, 0x00, 0x00, 0x00, 0x00, 0x00, 0x00, 0x00, 0x00, 0x00, 0x00, 0x00, 
  0x00, 0x00, 0x00, 0x00, 0x00, 0x00, 0x00, 0x00, 0x00, 0x00, 0x00, 0x00, 
  0x00, 0x00, 0x00, 0x00, 0x00, 0x00, 0x00, 0x00, 0x00, 0x00, 0x00, 0x00, 
  0x00, 0x00, 0x00, 0x00, 0x00, 0x00, 0x00, 0x00, 0x00, 0x00, 0x00, 0x00, 
  0x00, 0x00, 0x00, 0x00, 0x00, 0x00, 0x00, 0x00, 0x00, 0x00, 0x00, 0x00, 
  0x00, 0x00, 0x00, 0x00, 0x00, 0x00, 0x00, 0x00, 0x00, 0x00, 0x00, 0x00, 
  0x00, 0x00, 0x00, 0x00, 0x00, 0x00, 0x00, 0x00, 0x00, 0x00, 0x00, 0x00, 
  0x00, 0x00, 0x00, 0x00, 0x00, 0x00, 0x00, 0x00, 0x00, 0x00, 0x00, 0x00, 
  0x00, 0x00, 0x00, 0x00, 0x00, 0x00, 0x00, 0x00, 0x00, 0x00, 0x00, 0x00, 
  0x00, 0x00, 0x00, 0x00, 0x00, 0x00, 0x00, 0x00, 0x00, 0x00, 0x00, 0x00, 
  0x00, 0x00, 0x00, 0x00, 0x00, 0x00, 0x00, 0x00, 0x00, 0x00, 0x00, 0x00, 
  0x00, 0x00, 0x00, 0x00, 0x00, 0x00, 0x00, 0x00, 0x00, 0x00, 0x00, 0x00, 
  0x00, 0x00, 0x00, 0x00, 0x00, 0x00, 0x00, 0x00, 0x00, 0x00, 0x00, 0x00, 
  0x00, 0x00, 0x00, 0x00, 0x00, 0x00, 0x00, 0x00, 0x00, 0x00, 0x00, 0x00, 
  0x00, 0x00, 0x00, 0x00, 0x00, 0x00, 0x00, 0x00, 0x00, 0x00, 0x00, 0x00, 
  0x00, 0x00, 0x00, 0x00, 0x00, 0x00, 0x00, 0x00, 0x00, 0x00, 0x00, 0x00, 
  0x00, 0x00, 0x00, 0x00, 0x00, 0x00, 0x00, 0x00, 0x00, 0x00, 0x00, 0x00, 
  0x00, 0x00, 0x00, 0x00, 0x00, 0x00, 0x00, 0x00, 0x00, 0x00, 0x00, 0x00, 
  0x00, 0x00, 0x00, 0x00, 0x00, 0x00, 0x00, 0x00, 0x00, 0x00, 0x00, 0x00, 
  0x00, 0x00, 0x00, 0x00, 0x00, 0x00, 0x00, 0x00, 0x00, 0x00, 0x00, 0x00, 
  0x00, 0x00, 0x00, 0x00, 0x00, 0x00, 0x00, 0x00, 0x00, 0x00, 0x00, 0x00, 
  0x00, 0x00, 0x00, 0x00, 0x00, 0x00, 0x00, 0x00, 0x00, 0x00, 0x00, 0x00, 
  0x00, 0x00, 0x00, 0x00, 0x00, 0x00, 0x00, 0x00, 0x00, 0x00, 0x00, 0x00, 
  0x00, 0x00, 0x00, 0x00, 0x00, 0x00, 0x00, 0x00, 0x00, 0x00, 0x00, 0x00, 
  0x00, 0x00, 0x00, 0x00, 0x00, 0x00, 0x00, 0x00, 0x00, 0x00, 0x00, 0x00, 
  0x00, 0x00, 0x00, 0x00, 0x00, 0x00, 0x00, 0x00, 0x00, 0x00, 0x00, 0x00, 
  0x00, 0x00, 0x00, 0x00, 0x00, 0x00, 0x00, 0x00, 0x00, 0x00, 0x00, 0x00, 
  0x00, 0x00, 0x00, 0x00, 0x00, 0x00, 0x00, 0x00, 0x00, 0x00, 0x00, 0x00, 
  0x00, 0x00, 0x00, 0x00, 0x00, 0x00, 0x00, 0x00, 0x00, 0x00, 0x00, 0x00, 
  0x00, 0x00, 0x00, 0x00, 0x00, 0x00, 0x00, 0x00, 0x00, 0x00, 0x00, 0x00, 
  0x00, 0x00, 0x00, 0x00, 0x00, 0x00, 0x00, 0x00, 0x00, 0x00, 0x00, 0x00, 
  0x00, 0x00, 0x00, 0x00, 0x00, 0x00, 0x00, 0x00, 0x00, 0x00, 0x00, 0x00, 
  0x00, 0x00, 0x00, 0x00, 0x00, 0x00, 0x00, 0x00, 0x00, 0x00, 0x00, 0x00, 
  0x00, 0x00, 0x00, 0x00, 0x00, 0x00, 0x00, 0x00, 0x00, 0x00, 0x00, 0x00, 
  0x00, 0x00, 0x00, 0x00, 0x00, 0x00, 0x00, 0x00, 0x00, 0x00, 0x00, 0x00, 
  0x00, 0x00, 0x00, 0x00, 0x00, 0x00, 0x00, 0x00, 0x00, 0x00, 0x00, 0x00, 
  0x00, 0x00, 0x00, 0x00, 0x00, 0x00, 0x00, 0x00, 0x00, 0x00, 0x00, 0x00, 
  0x20, 0x00, 0x00, 0x00, 0x00, 0x00, 0x00, 0x00, 0x00, 0x00, 0x00, 0x00, 
  0x00, 0x00, 0x00, 0x00, 0x00, 0x00, 0x00, 0x00, 0x00, 0x00, 0x00, 0x00, 
  0x00, 0x00, 0x00, 0x00, 0x00, 0x00, 0x00, 0x00, 0x00, 0x00, 0x00, 0x00, 
  0x00, 0x00, 0x00, 0x00, 0x00, 0x00, 0x00, 0x00, 0x00, 0x00, 0x00, 0x00, 
  0x00, 0x00, 0x00, 0x00, 0x00, 0x00, 0x00, 0x00, 0x00, 0x00, 0x00, 0x00, 
  0x00, 0x00, 0x00, 0x00, 0x00, 0x00, 0x00, 0x00, 0x00, 0x00, 0x00, 0x00, 
  0x00, 0x00, 0x00, 0x00, 0x00, 0x00, 0x00, 0x00, 0x00, 0x00, 0x00, 0x00, 
  0x00, 0x00, 0x00, 0x00, 0x00, 0x00, 0x00, 0x00, 0x00, 0x00, 0x00, 0x00, 
  0x00, 0x00, 0x00, 0x00, 0x00, 0x00, 0x00, 0x00, 0x00, 0x00, 0x00, 0x00, 
  0x00, 0x00, 0x00, 0x00, 0x00, 0x00, 0x00, 0x00, 0x00, 0x00, 0x00, 0x00, 
  0x00, 0x00, 0x00, 0x00, 0x00, 0x00, 0x00, 0x00, 0x00, 0x00, 0x00, 0x00, 
  0x00, 0x00, 0x00, 0x00, 0x00, 0x00, 0x00, 0x00, 0x00, 0x00, 0x00, 0x00, 
  0x00, 0x00, 0x00, 0x00, 0x00, 0x00, 0x00, 0x00, 0x00, 0x00, 0x00, 0x00, 
  0x00, 0x00, 0x00, 0x00, 0x00, 0x00, 0x00, 0x00, 0x00, 0x00, 0x00, 0x00, 
  0x00, 0x00, 0x00, 0x00, 0x00, 0x00, 0x00, 0x00, 0x00, 0x00, 0x00, 0x00, 
  0x00, 0x00, 0x00, 0x00, 0x00, 0x00, 0x00, 0x00, 0x00, 0x00, 0x00, 0x00, 
  0x00, 0x00, 0x00, 0x00, 0x00, 0x00, 0x00, 0x00, 0x00, 0x00, 0x00, 0x00, 
  0x00, 0x00, 0x00, 0x00, 0x00, 0x00, 0x00, 0x00, 0x00, 0x00, 0x00, 0x00, 
  0x00, 0x00, 0x00, 0x00, 0x00, 0x00, 0x00, 0x00, 0x00, 0x00, 0x00, 0x00, 
  0x00, 0x00, 0x00, 0x00, 0x00, 0x00, 0x00, 0x00, 0x00, 0x00, 0x00, 0x00, 
  0x00, 0x00, 0x00, 0x00, 0x00, 0x00, 0x00, 0x00, 0x00, 0x00, 0x00, 0x00, 
  0x00, 0x00, 0x00, 0x00, 0x00, 0x00, 0x00, 0x00, 0x00, 0x00, 0x00, 0x00, 
  0x00, 0x00, 0x00, 0x00, 0x00, 0x00, 0x00, 0x00, 0x00, 0x00, 0x00, 0x00, 
  0x00, 0x00, 0x00, 0x00, 0x00, 0x00, 0x00, 0x00, 0x00, 0x00, 0x00, 0x00, 
  0x00, 0x00, 0x00, 0x00, 0x00, 0x00, 0x00, 0x00, 0x00, 0x00, 0x00, 0x00, 
  0x00, 0x00, 0x00, 0x00, 0x00, 0x00, 0x00, 0x00, 0x00, 0x00, 0x00, 0x00, 
  0x00, 0x00, 0x00, 0x00, 0x00, 0x00, 0x00, 0x00, 0x00, 0x00, 0x00, 0x00, 
  0x00, 0x00, 0x00, 0x00, 0x00, 0x00, 0x00, 0x00, 0x00, 0x00, 0x00, 0x00, 
  0x00, 0x00, 0x00, 0x00, 0x00, 0x00, 0x00, 0x00, 0x00, 0x00, 0x00, 0x00, 
  0x00, 0x00, 0x00, 0x00, 0x00, 0x00, 0x00, 0x00, 0x00, 0x00, 0x00, 0x00, 
  0x00, 0x00, 0x00, 0x00, 0x00, 0x00, 0x00, 0x00, 0x00, 0x00, 0x00, 0x00, 
  0x00, 0x00, 0x00, 0x00, 0x00, 0x00, 0x00, 0x00, 0x00, 0x00, 0x00, 0x00, 
  0x00, 0x00, 0x00, 0x00, 0x00, 0x00, 0x00, 0x00, 0x00, 0x00, 0x00, 0x00, 
  0x00, 0x00, 0x00, 0x00, 0x00, 0x00, 0x00, 0x00, 0x00, 0x00, 0x00, 0x00, 
  0x00, 0x00, 0x00, 0x00, 0x00, 0x00, 0x00, 0x00, 0x00, 0x00, 0x00, 0x00, 
  0x00, 0x00, 0x00, 0x00, 0x00, 0x00, 0x00, 0x00, 0x00, 0x00, 0x00, 0x00, 
  0x00, 0x00, 0x00, 0x00, 0x00, 0x00, 0x00, 0x00, 0x00, 0x00, 0x00, 0x00, 
  0x00, 0x00, 0x00, 0x00, 0x00, 0x00, 0x00, 0x00, 0x00, 0x00, 0x00, 0x00, 
  0x02, 0x00, 0x00, 0x00, 0x00, 0x00, 0x00, 0x00, 0x00, 0x00, 0x00, 0x00, 
  0x00, 0x00, 0x00, 0x00, 0x00, 0x00, 0x00, 0x00, 0x00, 0x00, 0x00, 0x00, 
  0x00, 0x00, 0x00, 0x00, 0x00, 0x00, 0x00, 0x00, 0x00, 0x00, 0x00, 0x00, 
  0x00, 0x00, 0x00, 0x00, 0x00, 0x00, 0x00, 0x00, 0x00, 0x00, 0x00, 0x00, 
  0x00, 0x00, 0x00, 0x00, 0x00, 0x00, 0x00, 0x00, 0x00, 0x00, 0x00, 0x00, 
  0x00, 0x00, 0x00, 0x00, 0x00, 0x00, 0x00, 0x00, 0x00, 0x00, 0x00, 0x00, 
  0x00, 0x00, 0x00, 0x00, 0x08, 0x00, 0x00, 0x00, 0x00, 0x00, 0x00, 0x00, 
  0x00, 0x00, 0x00, 0x00, 0x00, 0x00, 0x00, 0x00, 0x00, 0x00, 0x00, 0x00, 
  0x00, 0x00, 0x00, 0x00, 0x00, 0x00, 0x00, 0x00, 0x00, 0x00, 0x00, 0x00, 
  0x00, 0x00, 0x00, 0x00, 0x00, 0x00, 0x00, 0x00, 0x00, 0x00, 0x00, 0x00, 
  0x00, 0x00, 0x00, 0x00, 0x00, 0x00, 0x00, 0x00, 0x00, 0x00, 0x00, 0x00, 
  0x00, 0x00, 0x00, 0x00, 0x00, 0x00, 0x00, 0x00, 0x00, 0x00, 0x00, 0x00, 
  0x00, 0x00, 0x00, 0x00, 0x00, 0x00, 0x00, 0x00, 0x00, 0x00, 0x00, 0x00, 
  0x00, 0x00, 0x00, 0x00, 0x00, 0x00, 0x00, 0x00, 0x00, 0x00, 0x00, 0x00, 
  0x00, 0x00, 0x00, 0x00, 0x00, 0x00, 0x00, 0x00, 0x00, 0x00, 0x00, 0x00, 
  0x00, 0x00, 0x00, 0x00, 0x00, 0x00, 0x00, 0x00, 0x00, 0x00, 0x00, 0x00, 
  0x00, 0x00, 0x00, 0x00, 0x00, 0x00, 0x00, 0x00, 0x00, 0x00, 0x00, 0x00, 
  0x00, 0x00, 0x00, 0x00, 0x00, 0x00, 0x00, 0x00, 0x00, 0x00, 0x00, 0x00, 
  0x00, 0x00, 0x00, 0x00, 0x00, 0x00, 0x00, 0x00, 0x00, 0x00, 0xC0, 0xFF, 
  0x7F, 0xFE, 0xFF, 0xF1, 0xFF, 0x0F, 0x00, 0x00, 0xF0, 0xFF, 0x00, 0x00, 
  0x00, 0x00, 0x00, 0x00, 0x00, 0x00, 0x00, 0x00, 0x00, 0x00, 0x00, 0x00, 
  0x00, 0x00, 0x00, 0x00, 0x00, 0x00, 0x00, 0x00, 0x00, 0x00, 0x00, 0x00, 
  0xC6, 0xFF, 0x7F, 0xFE, 0xFF, 0xF1, 0xFF, 0x8F, 0xFF, 0x7F, 0xFC, 0xFF, 
  0x03, 0x00, 0x00, 0x00, 0x00, 0x00, 0x00, 0x00, 0x00, 0x00, 0x00, 0x00, 
  0x00, 0x00, 0x00, 0x00, 0x00, 0x00, 0x00, 0x00, 0x00, 0x00, 0x00, 0x00, 
  0x00, 0x00, 0xC0, 0xFF, 0x7F, 0xFE, 0xFF, 0xF1, 0xFF, 0x8F, 0xFF, 0x3E, 
  0xFC, 0xFF, 0x03, 0x00, 0x00, 0x00, 0x00, 0x00, 0x00, 0x00, 0x00, 0x00, 
  0x00, 0x00, 0x00, 0x00, 0x00, 0x00, 0x00, 0x00, 0x00, 0x00, 0x00, 0x00, 
  0x00, 0x00, 0x00, 0x00, 0xC0, 0xFF, 0x7F, 0xFE, 0xFF, 0xF1, 0xFF, 0x8F, 
  0xFF, 0x7F, 0xFC, 0xFF, 0x03, 0x00, 0x00, 0x00, 0x00, 0x00, 0x00, 0x00, 
  0x00, 0x00, 0x00, 0x00, 0x00, 0x00, 0x00, 0x00, 0x00, 0x00, 0x00, 0x00, 
  0x00, 0x00, 0x00, 0x00, 0x00, 0x00, 0xC0, 0xFF, 0x7F, 0xFE, 0xFF, 0xF1, 
  0xFF, 0x8F, 0xFF, 0x3F, 0xFC, 0xFF, 0x03, 0x00, 0x00, 0x00, 0x00, 0x00, 
  0x00, 0x00, 0x00, 0x00, 0x00, 0x00, 0x00, 0x00, 0x00, 0x00, 0x00, 0x00, 
  0x00, 0x00, 0x00, 0x00, 0x00, 0x00, 0x00, 0x00, 0xC0, 0xFF, 0x7F, 0xFE, 
  0xFF, 0xF1, 0xFF, 0x8F, 0xFF, 0x7F, 0xFC, 0xFF, 0x03, 0x00, 0x00, 0x00, 
  0x00, 0x00, 0x00, 0x00, 0x00, 0x00, 0x00, 0x00, 0x00, 0x00, 0x00, 0x00, 
  0x00, 0x00, 0x00, 0x00, 0x00, 0x00, 0x00, 0x00, 0x00, 0x00, 0xC0, 0xFF, 
  0x7F, 0xFE, 0xFF, 0xF1, 0xFF, 0x8F, 0xFF, 0x3F, 0xFC, 0xFF, 0x03, 0x00, 
  0x00, 0x00, 0x00, 0x00, 0x00, 0x00, 0x00, 0x00, 0x00, 0x00, 0x00, 0x00, 
  0x00, 0x00, 0x00, 0x00, 0x00, 0x00, 0x00, 0x00, 0x00, 0x00, 0x00, 0x00, 
  0xC0, 0xFF, 0x7F, 0xFE, 0xFF, 0xF1, 0xFF, 0x8F, 0xFF, 0x7F, 0xFC, 0xFF, 
  0x03, 0x00, 0x00, 0x00, 0x00, 0x00, 0x00, 0x00, 0x00, 0x00, 0x00, 0x00, 
  0x00, 0x00, 0x00, 0x00, 0x00, 0x00, 0x00, 0x00, 0x00, 0x00, 0x00, 0x00, 
  0x00, 0x00, 0xC0, 0xFF, 0x7F, 0xFE, 0xFF, 0xF1, 0xFF, 0x8F, 0xFF, 0x3F, 
  0xFC, 0xFF, 0x03, 0x00, 0x00, 0x00, 0x00, 0x00, 0x00, 0x00, 0x00, 0x00, 
  0x00, 0x00, 0x00, 0x00, 0x00, 0x00, 0x00, 0x00, 0x00, 0x00, 0x00, 0x00, 
  0x00, 0x00, 0x00, 0x00, 0xC0, 0xFF, 0x7F, 0xFE, 0xFF, 0xF1, 0xFF, 0x8F, 
  0xFF, 0x3F, 0xFC, 0xFF, 0x03, 0x00, 0x00, 0x00, 0x00, 0x00, 0x00, 0x00, 
  0x00, 0x00, 0x00, 0x00, 0x00, 0x00, 0x00, 0x00, 0x00, 0x00, 0x00, 0x00, 
  0x00, 0x00, 0x00, 0x00, 0x00, 0x00, 0xC0, 0xFF, 0x7F, 0xFE, 0xFF, 0xF1, 
  0xFF, 0x8F, 0xFF, 0x3F, 0xFC, 0xFF, 0x03, 0x00, 0x00, 0x00, 0x00, 0x00, 
  0x00, 0x00, 0x00, 0x00, 0x00, 0x00, 0x00, 0x00, 0x00, 0x00, 0x00, 0x00, 
  0x00, 0x00, 0x00, 0x00, 0x00, 0x00, 0x00, 0x00, 0xC0, 0xFF, 0x7F, 0xFE, 
  0xFF, 0xF1, 0xFF, 0x8F, 0xFF, 0x3F, 0xFC, 0xFF, 0x03, 0x00, 0x00, 0x00, 
  0x00, 0x00, 0x00, 0x00, 0x00, 0x00, 0x00, 0x00, 0x00, 0x00, 0x00, 0x00, 
  0x00, 0x00, 0x00, 0x00, 0x00, 0x00, 0x00, 0x00, 0x00, 0x00, 0xC0, 0xFF, 
  0x7F, 0xFE, 0xFF, 0xF1, 0xFF, 0x8F, 0xFF, 0x7F, 0xFC, 0xFF, 0x03, 0x00, 
  0x00, 0x00, 0x00, 0x00, 0x00, 0x00, 0x00, 0x00, 0x00, 0x00, 0x00, 0x00, 
  0x00, 0x00, 0x00, 0x00, 0x00, 0x00, 0x00, 0x00, 0x00, 0x00, 0x00, 0x00, 
  0xC0, 0xFF, 0x7F, 0xFE, 0xFF, 0xF1, 0xFF, 0x8F, 0xFF, 0x3F, 0xFC, 0xFF, 
  0x03, 0x00, 0x00, 0x00, 0x00, 0x00, 0x00, 0x00, 0x00, 0x00, 0x00, 0x00, 
  0x00, 0x00, 0x00, 0x00, 0x00, 0x00, 0x00, 0x00, 0x00, 0x00, 0x00, 0x00, 
  0x00, 0x00, 0xC0, 0xFF, 0x7F, 0xFE, 0xFF, 0xF1, 0xFF, 0x8F, 0xFF, 0x3F, 
  0xFC, 0xFF, 0x03, 0x00, 0x00, 0x00, 0x00, 0x00, 0x00, 0x00, 0x00, 0x00, 
  0x00, 0x00, 0x00, 0x00, 0x00, 0x00, 0x00, 0x00, 0x00, 0x00, 0x00, 0x00, 
  0x00, 0x00, 0x10, 0x00, 0xC0, 0xFF, 0x7F, 0xFE, 0xFF, 0xF1, 0xFF, 0x8F, 
  0xFF, 0x3F, 0xFC, 0xFF, 0x03, 0x00, 0x00, 0x00, 0x00, 0x00, 0x00, 0x00, 
  0x00, 0x00, 0x00, 0x00, 0x00, 0x00, 0x00, 0x00, 0x00, 0x00, 0x00, 0x00, 
  0x00, 0x00, 0x00, 0x00, 0x00, 0x00, 0x80, 0xFF, 0x07, 0x00, 0x00, 0x00, 
  0x00, 0x00, 0x00, 0x00, 0x00, 0x00, 0x00, 0x00, 0x00, 0x00, 0x00, 0x00, 
  0x00, 0x00, 0x00, 0x00, 0x00, 0x00, 0x00, 0x00, 0x00, 0x00, 0x00, 0x00, 
  0x00, 0x00, 0x00, 0x00, 0x00, 0x00, 0x00, 0x00, 0x00, 0x00, 0x00, 0x00, 
  0x00, 0x00, 0x00, 0x00, 0x00, 0x00, 0x00, 0x00, 0x00, 0x00, 0x00, 0x00, 
  0x00, 0x00, 0x00, 0x00, 0x00, 0x00, 0x00, 0x00, 0x00, 0x00, 0x00, 0x00, 
  0x00, 0x00, 0x00, 0x00, 0x00, 0x00, 0x00, 0x00, 0x00, 0x00, 0x80, 0xFF, 
  0x1F, 0x00, 0x00, 0x00, 0x00, 0x00, 0x00, 0x00, 0x00, 0x00, 0x00, 0x00, 
  0x00, 0x00, 0x00, 0x00, 0x00, 0x00, 0x00, 0x00, 0x00, 0x00, 0x00, 0x00, 
  0x00, 0x00, 0x00, 0x00, 0x00, 0x00, 0x00, 0x00, 0x00, 0x00, 0xF8, 0xFF, 
  0xCF, 0xFF, 0x7F, 0xFE, 0xFF, 0xF3, 0xFF, 0x9F, 0xFF, 0x7F, 0xFE, 0xFF, 
  0xF3, 0xFF, 0x0F, 0x00, 0x00, 0x00, 0x00, 0x00, 0x00, 0x00, 0x00, 0x00, 
  0x00, 0x00, 0x00, 0x00, 0x00, 0x00, 0x00, 0x00, 0x00, 0x00, 0x00, 0x00, 
  0xF9, 0xFF, 0xCF, 0xFF, 0x7F, 0xFE, 0xFF, 0xF3, 0xFF, 0x9F, 0xFF, 0x7F, 
  0xFE, 0xFF, 0xF3, 0xFF, 0x1D, 0x00, 0x00, 0x00, 0x00, 0x00, 0x00, 0x00, 
  0x00, 0x00, 0x00, 0x00, 0x00, 0x00, 0x00, 0x00, 0x00, 0x00, 0x00, 0x00, 
  0x00, 0x00, 0xF8, 0xFF, 0xCF, 0xFF, 0x7F, 0xFE, 0xFF, 0xFB, 0xFF, 0x9F, 
  0xFF, 0x7F, 0xFE, 0xFF, 0xF3, 0xFF, 0x1F, 0x00, 0x00, 0x00, 0x00, 0x00, 
  0x00, 0x00, 0x00, 0x00, 0x00, 0x00, 0x00, 0x00, 0x00, 0x00, 0x00, 0x00, 
  0x00, 0x00, 0x00, 0x00, 0xF8, 0xFF, 0xCF, 0xFF, 0x7F, 0xFE, 0xFF, 0xF3, 
  0xFF, 0x9F, 0xFF, 0x7F, 0xFE, 0xFF, 0xF3, 0xFF, 0x17, 0x00, 0x00, 0x00, 
  0x00, 0x00, 0x00, 0x00, 0x00, 0x00, 0x00, 0x00, 0x00, 0x00, 0x00, 0x00, 
  0x00, 0x00, 0x00, 0x00, 0x00, 0x00, 0xF8, 0xFF, 0xCF, 0xFF, 0x7F, 0xFE, 
  0xFF, 0xF3, 0xFF, 0x9F, 0xFF, 0x7F, 0xFE, 0xFF, 0xF3, 0xFF, 0x1F, 0x00, 
  0x00, 0x00, 0x00, 0x00, 0x00, 0x00, 0x00, 0x00, 0x00, 0x00, 0x00, 0x00, 
  0x00, 0x00, 0x00, 0x00, 0x00, 0x00, 0x00, 0x00, 0xF8, 0xFF, 0xCF, 0xFF, 
  0x7F, 0xFE, 0xFF, 0xF3, 0xFF, 0x9F, 0xFF, 0x7F, 0xFE, 0xFF, 0xF3, 0xFF, 
  0x1F, 0x00, 0x00, 0x00, 0x00, 0x00, 0x00, 0x00, 0x00, 0x00, 0x00, 0x00, 
  0x00, 0x00, 0x00, 0x00, 0x00, 0x00, 0x00, 0x00, 0x00, 0x00, 0xF8, 0xFF, 
  0xCF, 0xFF, 0x7F, 0xFE, 0xFF, 0xF3, 0xFF, 0x9F, 0xFF, 0x7F, 0xFE, 0xFF, 
  0xF3, 0xFF, 0x1F, 0x00, 0x00, 0x00, 0x00, 0x00, 0x00, 0x00, 0x00, 0x00, 
  0x00, 0x00, 0x00, 0x00, 0x00, 0x00, 0x00, 0x00, 0x00, 0x00, 0x00, 0x00, 
  0xF8, 0xFF, 0xCF, 0xFF, 0x7F, 0xFE, 0xFF, 0xF3, 0xFF, 0x9F, 0xFF, 0x7F, 
  0xFE, 0xFF, 0xF3, 0xFF, 0x1F, 0x00, 0x00, 0x00, 0x00, 0x00, 0x00, 0x00, 
  0x00, 0x00, 0x00, 0x00, 0x00, 0x00, 0x00, 0x00, 0x00, 0x00, 0x00, 0x00, 
  0x00, 0x00, 0xF8, 0xFF, 0xCF, 0xFF, 0x7F, 0xFE, 0xFF, 0xF3, 0xFF, 0x9F, 
  0xFF, 0x7F, 0xFE, 0xFF, 0xF3, 0xFF, 0x1F, 0x00, 0x00, 0x00, 0x00, 0x00, 
  0x00, 0x00, 0x00, 0x00, 0x00, 0x00, 0x00, 0x00, 0x00, 0x00, 0x00, 0x00, 
  0x00, 0x00, 0x00, 0x00, 0xF8, 0xFF, 0xCF, 0xFF, 0x7F, 0xFE, 0xFF, 0xF3, 
  0xFF, 0x9F, 0xFF, 0x7F, 0xFE, 0xFF, 0xF3, 0xFF, 0x1F, 0x00, 0x00, 0x00, 
  0x00, 0x00, 0x00, 0x00, 0x00, 0x00, 0x00, 0x00, 0x00, 0x00, 0x00, 0x00, 
  0x00, 0x00, 0x00, 0x00, 0x00, 0x00, 0xF8, 0xFF, 0xCF, 0xFF, 0x7F, 0xFE, 
  0xFF, 0xF3, 0xFF, 0x9F, 0xFF, 0x7F, 0xFE, 0xFF, 0xF3, 0xFF, 0x1F, 0x00, 
  0x00, 0x00, 0x00, 0x00, 0x00, 0x00, 0x00, 0x00, 0x00, 0x00, 0x00, 0x00, 
  0x00, 0x00, 0x00, 0x00, 0x00, 0x00, 0x00, 0x00, 0xF8, 0xFF, 0xCF, 0xFF, 
  0x7F, 0xFE, 0xFF, 0xF3, 0xFF, 0x9F, 0xFF, 0x7F, 0xFE, 0xFF, 0xF3, 0xFF, 
  0x1F, 0x00, 0x00, 0x00, 0x00, 0x00, 0x00, 0x00, 0x00, 0x00, 0x00, 0x00, 
  0x00, 0x00, 0x00, 0x00, 0x00, 0x00, 0x00, 0x00, 0x00, 0x00, 0xF9, 0xFF, 
  0xCF, 0xFF, 0x7F, 0xFE, 0xFF, 0xF3, 0xFF, 0x9F, 0xFF, 0x7F, 0xFE, 0xFF, 
  0xF3, 0xFF, 0x1F, 0x00, 0x00, 0x00, 0x00, 0x00, 0x00, 0x00, 0x00, 0x00, 
  0x00, 0x00, 0x00, 0x00, 0x00, 0x00, 0x00, 0x00, 0x00, 0x00, 0x00, 0x00, 
  0xF8, 0xFF, 0xCF, 0xFF, 0x7F, 0xFE, 0xFF, 0xF3, 0xFF, 0x9F, 0xFF, 0x7F, 
  0xFE, 0xFF, 0xC3, 0xFF, 0x0F, 0x00, 0x00, 0x00, 0x00, 0x00, 0x00, 0x00, 
  0x00, 0x00, 0x00, 0x00, 0x00, 0x00, 0x00, 0x00, 0x00, 0x00, 0x00, 0x00, 
  0x00, 0x00, 0xF9, 0xFF, 0xCF, 0xFF, 0x7F, 0xFE, 0xFF, 0xFB, 0xFF, 0x9F, 
  0xFF, 0x7F, 0xFE, 0xFF, 0xF3, 0xFF, 0x0E, 0x00, 0x00, 0x00, 0x00, 0x00, 
  0x00, 0x00, 0x00, 0x00, 0x00, 0x00, 0x00, 0x00, 0x00, 0x00, 0x00, 0x00, 
  0x00, 0x00, 0x00, 0x00, 0xF8, 0xFF, 0xCF, 0xFF, 0x7F, 0xFE, 0xFF, 0xF3, 
  0xFF, 0x9F, 0xFF, 0x7F, 0xFE, 0xFF, 0xE3, 0xFF, 0x0F, 0x00, 0x00, 0x00, 
  0x00, 0x00, 0x00, 0x00, 0x00, 0x00, 0x00, 0x00, 0x00, 0x00, 0x00, 0x00, 
  0x00, 0x00, 0x00, 0x00, 0x00, 0x00, 0x00, 0x00, 0xC0, 0xFF, 0x7F, 0xFA, 
  0xFF, 0xF1, 0xFF, 0x0F, 0x00, 0x00, 0x90, 0x00, 0x01, 0x00, 0x00, 0x00, 
  0x00, 0x00, 0x00, 0x00, 0x00, 0x00, 0x00, 0x00, 0x00, 0x00, 0x00, 0x00, 
  0x00, 0x00, 0x00, 0x00, 0x00, 0x00, 0x00, 0x00, 0x00, 0x00, 0x00, 0x00, 
  0x00, 0x00, 0x00, 0x00, 0x00, 0x00, 0x00, 0x00, 0x00, 0x00, 0x00, 0x00, 
  0x00, 0x00, 0x00, 0x00, 0x00, 0x00, 0x00, 0x00, 0x00, 0x00, 0x00, 0x00, 
  0x00, 0x00, 0x00, 0x00, 0x00, 0x00, 0x00, 0x00, 0x00, 0x00, 0xE0, 0xFF, 
  0xCF, 0xFF, 0x7F, 0xFE, 0xFF, 0xF1, 0xFF, 0x8F, 0xFF, 0x7F, 0xFC, 0xFF, 
  0x03, 0x00, 0x00, 0x00, 0x00, 0x00, 0x00, 0x00, 0x00, 0x00, 0x00, 0x00, 
  0x00, 0x00, 0x00, 0x00, 0x00, 0x00, 0x00, 0x00, 0x00, 0x00, 0xFF, 0xFF, 
  0xF9, 0xFF, 0xCF, 0xFF, 0x7F, 0xFE, 0xFF, 0xFB, 0xFF, 0xDF, 0xFF, 0xFF, 
  0xFE, 0xFF, 0xF3, 0xFF, 0x1F, 0x00, 0x00, 0x00, 0x00, 0x00, 0x00, 0x00, 
  0x00, 0x00, 0x00, 0x00, 0x00, 0x00, 0x00, 0x00, 0x00, 0xF8, 0xFF, 0x0F, 
  0xFF, 0xFF, 0xF9, 0xFF, 0xCF, 0xFF, 0x7F, 0xFE, 0xFF, 0xFB, 0xFF, 0xDF, 
  0xFF, 0xFF, 0xFE, 0xFF, 0xF3, 0xFF, 0x1F, 0x00, 0x00, 0x00, 0x00, 0x00, 
  0x00, 0x00, 0x00, 0x00, 0x00, 0x00, 0x00, 0x00, 0x00, 0x00, 0x00, 0xF8, 
  0xFF, 0x0F, 0xFF, 0xFF, 0xF9, 0xFF, 0xCF, 0xFF, 0x7F, 0xFE, 0xFF, 0xFB, 
  0xFF, 0xDF, 0xFF, 0xFF, 0xFE, 0xFF, 0xF3, 0xFF, 0x1F, 0x00, 0x00, 0x00, 
  0x00, 0x00, 0x00, 0x00, 0x00, 0x00, 0x00, 0x00, 0x00, 0x00, 0x00, 0x00, 
  0x00, 0xF8, 0xFF, 0x0F, 0xFF, 0xFF, 0xF9, 0xFF, 0xCF, 0xFF, 0x7F, 0xFE, 
  0xFF, 0xFB, 0xFF, 0xDF, 0xFF, 0xFF, 0xFE, 0xFF, 0xF3, 0xFF, 0x1F, 0x00, 
  0x00, 0x00, 0x00, 0x00, 0x00, 0x00, 0x00, 0x00, 0x00, 0x00, 0x00, 0x00, 
  0x00, 0x00, 0x00, 0xF8, 0xFF, 0x0F, 0xFF, 0xFF, 0xF9, 0xFF, 0xCF, 0xFF, 
  0x7F, 0xFE, 0xFF, 0xFB, 0xFF, 0xDF, 0xFF, 0xFF, 0xFE, 0xFF, 0xF3, 0xFF, 
  0x1F, 0x00, 0x00, 0x00, 0x00, 0x00, 0x00, 0x00, 0x00, 0x00, 0x00, 0x00, 
  0x00, 0x00, 0x00, 0x00, 0x00, 0xF8, 0xFF, 0x0F, 0xFF, 0xFF, 0xF9, 0xFF, 
  0xCF, 0xFF, 0x7F, 0xFE, 0xFF, 0xFB, 0xFF, 0xDF, 0xFF, 0xFF, 0xFE, 0xFF, 
  0xF3, 0xFF, 0x1F, 0x00, 0x00, 0x00, 0x00, 0x00, 0x00, 0x00, 0x00, 0x00, 
  0x00, 0x00, 0x00, 0x00, 0x00, 0x00, 0x00, 0xF8, 0xFF, 0x0F, 0xFF, 0xFF, 
  0xF9, 0xFF, 0xCF, 0xFF, 0x7F, 0xFE, 0xFF, 0xFB, 0xFF, 0xDF, 0xFF, 0xFF, 
  0xFE, 0xFF, 0xF3, 0xFF, 0x1F, 0x00, 0x00, 0x00, 0x00, 0x00, 0x00, 0x00, 
  0x00, 0x00, 0x00, 0x00, 0x00, 0x00, 0x00, 0x00, 0x00, 0xF8, 0xFF, 0x0F, 
  0xFF, 0xFF, 0xF9, 0xFF, 0xCF, 0xFF, 0x7F, 0xFE, 0xFF, 0xFB, 0xFF, 0xDF, 
  0xFF, 0xFF, 0xFE, 0xFF, 0xF3, 0xFF, 0x1F, 0x00, 0x00, 0x00, 0x00, 0x00, 
  0x00, 0x00, 0x00, 0x00, 0x00, 0x00, 0x00, 0x00, 0x00, 0x00, 0x00, 0xF8, 
  0xFF, 0x0F, 0xFF, 0xFF, 0xF9, 0xFF, 0xCF, 0xFF, 0x7F, 0xFE, 0xFF, 0xFB, 
  0xFF, 0xDF, 0xFF, 0xFF, 0xFE, 0xFF, 0xF3, 0xFF, 0x1F, 0x00, 0x00, 0x00, 
  0x00, 0x00, 0x00, 0x00, 0x00, 0x00, 0x00, 0x00, 0x00, 0x00, 0x00, 0x00, 
  0x00, 0xF8, 0xFF, 0x0F, 0xFF, 0xFF, 0xF9, 0xFF, 0xCF, 0xFF, 0x7F, 0xFE, 
  0xFF, 0xFB, 0xFF, 0xDF, 0xFF, 0xFF, 0xFE, 0xFF, 0xF3, 0xFF, 0x1F, 0x00, 
  0x00, 0x00, 0x00, 0x00, 0x00, 0x00, 0x00, 0x00, 0x00, 0x00, 0x00, 0x00, 
  0x00, 0x00, 0x00, 0xF8, 0xFF, 0x0F, 0xFF, 0xFF, 0xF9, 0xFF, 0xCF, 0xFF, 
  0x7F, 0xFE, 0xFF, 0xFB, 0xFF, 0xDF, 0xFF, 0xFF, 0xFE, 0xFF, 0xF3, 0xFF, 
  0x1F, 0x00, 0x00, 0x00, 0x00, 0x00, 0x00, 0x00, 0x00, 0x00, 0x00, 0x00, 
  0x00, 0x00, 0x00, 0x00, 0x00, 0xF8, 0xFF, 0x0F, 0xFF, 0xFF, 0xF9, 0xFF, 
  0xCF, 0xFF, 0x7F, 0xFE, 0xFF, 0xFB, 0xFF, 0xDF, 0xFF, 0xFF, 0xFE, 0xFF, 
  0xF3, 0xFF, 0x1F, 0x00, 0x00, 0x00, 0x00, 0x00, 0x00, 0x00, 0x00, 0x00, 
  0x00, 0x00, 0x00, 0x00, 0x00, 0x00, 0x00, 0xF8, 0xFF, 0x0F, 0xFF, 0xFF, 
  0xF9, 0xFF, 0xCF, 0xFF, 0x7F, 0xFE, 0xFF, 0xFB, 0xFF, 0xDF, 0xFF, 0xFF, 
  0xFE, 0xFF, 0xF3, 0xFF, 0x1F, 0x00, 0x00, 0x00, 0x00, 0x00, 0x00, 0x00, 
  0x00, 0x00, 0x00, 0x00, 0x00, 0x00, 0x00, 0x00, 0x00, 0xF8, 0xFF, 0x0F, 
  0xFF, 0xFF, 0xF9, 0xFF, 0xCF, 0xFF, 0x7F, 0xFE, 0xFF, 0xFB, 0xFF, 0xDF, 
  0xFF, 0xFF, 0xFE, 0xFF, 0xF3, 0xFF, 0x1F, 0x00, 0x00, 0x00, 0x00, 0x00, 
  0x00, 0x00, 0x00, 0x00, 0x00, 0x00, 0x00, 0x00, 0x00, 0x00, 0x00, 0xF8, 
  0xFF, 0x0F, 0xFF, 0xFF, 0xF9, 0xFF, 0xCF, 0xFF, 0x7F, 0xFE, 0xFF, 0xF3, 
  0xFF, 0xDF, 0xFF, 0x7F, 0xFE, 0xFF, 0xF3, 0xFF, 0x1F, 0x00, 0x00, 0x00, 
  0x00, 0x00, 0x00, 0x00, 0x00, 0x00, 0x00, 0x00, 0x00, 0x00, 0x00, 0x01, 
  0x00, 0xF8, 0xFF, 0x0F, 0xFF, 0xFF, 0xF9, 0xFF, 0xCF, 0xFF, 0x7F, 0xFE, 
  0xFF, 0xFB, 0xFF, 0xDF, 0xFF, 0xFF, 0xFE, 0xFF, 0xF3, 0xFF, 0x1F, 0x00, 
  0x00, 0x00, 0x00, 0x00, 0x00, 0x00, 0x00, 0x00, 0x00, 0x00, 0x00, 0x00, 
  0x00, 0x00, 0x00, 0xF8, 0xFF, 0x0F, 0x00, 0x00, 0x00, 0x00, 0xC0, 0xFF, 
  0x7F, 0xFE, 0xFF, 0xF1, 0xFF, 0x8F, 0xFF, 0x7F, 0xFC, 0xFF, 0x03, 0x00, 
  0x00, 0x00, 0x00, 0x00, 0x00, 0x00, 0x00, 0x00, 0x00, 0x00, 0x00, 0x00, 
  0x00, 0x00, 0x00, 0x00, 0x00, 0x00, 0x00, 0x00, 0x00, 0x00, 0x00, 0x00, 
  0x00, 0x00, 0x00, 0x00, 0x00, 0x00, 0x00, 0x00, 0x00, 0x00, 0x00, 0x00, 
  0x00, 0x00, 0x00, 0x00, 0x00, 0x00, 0x00, 0x00, 0x00, 0x00, 0x00, 0x00, 
  0x00, 0x00, 0x00, 0x00, 0x00, 0x00, 0x00, 0x00, 0x00, 0x00, 0xFF, 0xFF, 
  0xF9, 0xFF, 0xCF, 0xFF, 0x7F, 0xFE, 0xFF, 0xF1, 0xFF, 0x8F, 0xFF, 0x7F, 
  0xFE, 0xFF, 0xE3, 0xFF, 0x1F, 0x00, 0x00, 0x00, 0x00, 0x00, 0x00, 0x00, 
  0x00, 0x00, 0x00, 0x00, 0x00, 0x00, 0x00, 0x00, 0x00, 0xF8, 0xFF, 0x0F, 
  0xFF, 0xFF, 0xF9, 0xFF, 0xCF, 0xFF, 0x7F, 0xFE, 0xFF, 0xFB, 0xFF, 0xDF, 
  0xFF, 0xFF, 0xFE, 0xFF, 0xF3, 0xFF, 0x9F, 0xFF, 0xFF, 0x00, 0x00, 0x40, 
  0x00, 0x00, 0x00, 0x00, 0xF8, 0xFF, 0xC7, 0xFF, 0x3F, 0xFF, 0xFF, 0xF9, 
  0xFF, 0x0F, 0xFF, 0xFF, 0xF9, 0xFF, 0xCF, 0xFF, 0x7F, 0xFE, 0xFF, 0xFB, 
  0xFF, 0xDF, 0xFF, 0xFF, 0xFE, 0xFF, 0xF3, 0xFF, 0x9F, 0xFF, 0xFF, 0x00, 
  0x00, 0x40, 0x00, 0x00, 0x00, 0x00, 0xF8, 0xFF, 0xC7, 0xFF, 0x3F, 0xFF, 
  0xFF, 0xF9, 0xFF, 0x0F, 0xFF, 0xFF, 0xF9, 0xFF, 0xCF, 0xFF, 0x7F, 0xFE, 
  0xFF, 0xFB, 0xFF, 0xDF, 0xFF, 0xFF, 0xFE, 0xFF, 0xF3, 0xFF, 0x9F, 0xFF, 
  0xFF, 0x00, 0x00, 0x00, 0x00, 0x00, 0x00, 0x00, 0xF8, 0xFF, 0xC7, 0xFF, 
  0x1F, 0xFF, 0xFF, 0xF9, 0xFF, 0x0F, 0xFF, 0xFF, 0xF9, 0xFF, 0xCF, 0xFF, 
  0x7F, 0xFE, 0xFF, 0xFB, 0xFF, 0xDF, 0xFF, 0xFF, 0xFE, 0xFF, 0xF3, 0xFF, 
  0x9F, 0xFF, 0xFF, 0x00, 0x00, 0x00, 0x00, 0x00, 0x00, 0x00, 0xF8, 0xFF, 
  0xC7, 0xFF, 0x1F, 0xFF, 0xFF, 0xF9, 0xFF, 0x0F, 0xFF, 0xFF, 0xF9, 0xFF, 
  0xCF, 0xFF, 0x7F, 0xFE, 0xFF, 0xFB, 0xFF, 0xDF, 0xFF, 0xFF, 0xFE, 0xFF, 
  0xF3, 0xFF, 0x9F, 0xFF, 0xFF, 0x00, 0x00, 0x00, 0x00, 0x00, 0x00, 0x00, 
  0xF8, 0xFF, 0xC7, 0xFF, 0x3F, 0xFF, 0xFF, 0xF9, 0xFF, 0x0F, 0xFF, 0xFF, 
  0xF9, 0xFF, 0xCF, 0xFF, 0x7F, 0xFE, 0xFF, 0xFB, 0xFF, 0xDF, 0xFF, 0xFF, 
  0xFE, 0xFF, 0xF3, 0xFF, 0x9F, 0xFF, 0xFF, 0x00, 0x00, 0x00, 0x00, 0x00, 
  0x00, 0x00, 0xF8, 0xFF, 0xC7, 0xFF, 0x3F, 0xFF, 0xFF, 0xF9, 0xFF, 0x0F, 
  0xFF, 0xFF, 0xF9, 0xFF, 0xCF, 0xFF, 0x7F, 0xFE, 0xFF, 0xFB, 0xFF, 0xDF, 
  0xFF, 0xFF, 0xFE, 0xFF, 0xF3, 0xFF, 0x9F, 0xFF, 0xFF, 0x00, 0x00, 0x00, 
  0x00, 0x00, 0x00, 0x00, 0xF8, 0xFF, 0xC7, 0xFF, 0x3F, 0xFF, 0xFF, 0xF9, 
  0xFF, 0x0F, 0xFF, 0xFF, 0xF9, 0xFF, 0xCF, 0xFF, 0x7F, 0xFE, 0xFF, 0xFB, 
  0xFF, 0xDF, 0xFF, 0xFF, 0xFE, 0xFF, 0xF3, 0xFF, 0x9F, 0xFF, 0xFF, 0x00, 
  0x00, 0x00, 0x00, 0x00, 0x00, 0x00, 0xF8, 0xFF, 0xC7, 0xFF, 0x3F, 0xFF, 
  0xFF, 0xF9, 0xFF, 0x0F, 0xFF, 0xFF, 0xF9, 0xFF, 0xCF, 0xFF, 0x7F, 0xFE, 
  0xFF, 0xFB, 0xFF, 0xDF, 0xFF, 0xFF, 0xFE, 0xFF, 0xF3, 0xFF, 0x9F, 0xFF, 
  0xFF, 0x00, 0x00, 0x00, 0x00, 0x00, 0x00, 0x00, 0xF8, 0xFF, 0xC7, 0xFF, 
  0x3F, 0xFF, 0xFF, 0xF9, 0xFF, 0x0F, 0xFF, 0xFF, 0xF9, 0xFF, 0xCF, 0xFF, 
  0x7F, 0xFE, 0xFF, 0xFB, 0xFF, 0xDF, 0xFF, 0xFF, 0xFE, 0xFF, 0xF3, 0xFF, 
  0x9F, 0xFF, 0xFF, 0x00, 0x00, 0x00, 0x00, 0x00, 0x00, 0x00, 0xF8, 0xFF, 
  0xC7, 0xFF, 0x3F, 0xFF, 0xFF, 0xF9, 0xFF, 0x0F, 0xFF, 0xFF, 0xF9, 0xFF, 
  0xCF, 0xFF, 0x7F, 0xFE, 0xFF, 0xFB, 0xFF, 0xDF, 0xFF, 0xFF, 0xFE, 0xFF, 
  0xF3, 0xFF, 0x9F, 0xFF, 0xFF, 0x00, 0x00, 0x00, 0x00, 0x00, 0x00, 0x00, 
  0xF8, 0xFF, 0xC7, 0xFF, 0x3F, 0xFF, 0xFF, 0xF9, 0xFF, 0x0F, 0xFF, 0xFF, 
  0xF9, 0xFF, 0xCF, 0xFF, 0x7F, 0xFE, 0xFF, 0xFB, 0xFF, 0xDF, 0xFF, 0xFF, 
  0xFE, 0xFF, 0xF3, 0xFF, 0x9F, 0xFF, 0xFF, 0x00, 0x00, 0x00, 0x00, 0x00, 
  0x00, 0x00, 0xF8, 0xFF, 0xC7, 0xFF, 0x3F, 0xFF, 0xFF, 0xF9, 0xFF, 0x0F, 
  0xFF, 0xFF, 0xF9, 0xFF, 0xCF, 0xFF, 0x7F, 0xFE, 0xFF, 0xFB, 0xFF, 0xDF, 
  0xFF, 0xFF, 0xFE, 0xFF, 0xF3, 0xFF, 0x9F, 0xFF, 0xFF, 0x00, 0x00, 0x00, 
  0x00, 0x00, 0x00, 0x00, 0xF8, 0xFF, 0xC7, 0xFF, 0x3F, 0xFF, 0xFF, 0xF9, 
  0xFF, 0x0F, 0xFF, 0xFF, 0xF9, 0xFF, 0xCF, 0xFF, 0x7F, 0xFE, 0xFF, 0xFB, 
  0xFF, 0xDF, 0xFF, 0xFF, 0xFE, 0xFF, 0xF3, 0xFF, 0x9F, 0xFF, 0xFF, 0x00, 
  0x00, 0x00, 0x00, 0x00, 0x00, 0x00, 0xF8, 0xFF, 0xC7, 0xFF, 0x3F, 0xFF, 
  0xFF, 0xF9, 0xFF, 0x0F, 0xFF, 0xFF, 0xF9, 0xFF, 0xCF, 0xFF, 0x7F, 0xFE, 
  0xFF, 0xFB, 0xFF, 0xDF, 0xFF, 0xFF, 0xFE, 0xFF, 0xF3, 0xFF, 0x9F, 0xFF, 
  0xFF, 0x00, 0x00, 0x20, 0x00, 0x00, 0x00, 0x00, 0xF8, 0xFF, 0xC7, 0xFF, 
  0x3F, 0xFF, 0xFF, 0xF9, 0xFF, 0x0F, 0xFF, 0xFF, 0xF9, 0xFF, 0xCF, 0xFF, 
  0x7F, 0xFE, 0xFF, 0xF3, 0xFF, 0xDF, 0xFF, 0xFF, 0xFE, 0xFF, 0xF3, 0xFF, 
  0x9F, 0xFF, 0xFF, 0x00, 0x00, 0x00, 0x00, 0x00, 0x00, 0x00, 0xF8, 0xFF, 
  0xC7, 0xFF, 0x1F, 0xFF, 0xFF, 0xF9, 0xFF, 0x0F, 0x00, 0x00, 0x00, 0x00, 
  0x00, 0x00, 0x0D, 0x00, 0x00, 0x00, 0x00, 0x00, 0x00, 0x00, 0x00, 0x00, 
  0x00, 0x00, 0x00, 0x00, 0x00, 0x00, 0x00, 0x00, 0x00, 0x00, 0x00, 0x00, 
  0x00, 0x00, 0x00, 0x00, 0x00, 0x00, 0x00, 0x00, 0x00, 0x00, 0x00, 0x00, 
  0x00, 0x00, 0x00, 0x00, 0x00, 0x00, 0x00, 0x00, 0x00, 0x00, 0x00, 0x00, 
  0x00, 0x00, 0x00, 0x00, 0x00, 0x00, 0x00, 0x00, 0x00, 0x00, 0x00, 0x00, 
  0x00, 0x00, 0x00, 0x00, 0x00, 0x00, 0x00, 0x00, 0x00, 0x00, 0x00, 0x00, 
  0xFF, 0xFF, 0xF9, 0xFF, 0xCF, 0xFF, 0x7F, 0xFE, 0xFF, 0xFB, 0xFF, 0xDF, 
  0xFF, 0xFF, 0xFE, 0xFF, 0xF3, 0xFF, 0x9F, 0xFF, 0xFF, 0x9C, 0xFF, 0xE1, 
  0xFF, 0x1F, 0xFF, 0xFF, 0xF8, 0xFF, 0xE7, 0xFF, 0x3F, 0xFF, 0xFF, 0xF9, 
  0xFF, 0x0F, 0xFF, 0xFF, 0xF9, 0xFF, 0xCF, 0xFF, 0x7F, 0xFE, 0xFF, 0xFB, 
  0xFF, 0xDF, 0xFF, 0xFF, 0xFE, 0xFF, 0xF3, 0xFF, 0x9F, 0xFF, 0xFF, 0xFC, 
  0xFF, 0xE3, 0xFF, 0x1F, 0xFF, 0xFF, 0xFC, 0xFF, 0xE7, 0xFF, 0x3F, 0xFF, 
  0xFF, 0xF9, 0xFF, 0x0F, 0xFF, 0xFF, 0xF9, 0xFF, 0xCF, 0xFF, 0x7F, 0xFF, 
  0xFF, 0xFB, 0xFF, 0xDF, 0xFF, 0xFF, 0xFE, 0xFF, 0xF3, 0xFF, 0x9F, 0xFF, 
  0xFF, 0xFC, 0xFF, 0xE3, 0xFF, 0x1F, 0xFF, 0xFF, 0xFC, 0xFF, 0xE7, 0xFF, 
  0x3F, 0xFF, 0xFF, 0xF9, 0xFF, 0x0F, 0xFF, 0xFF, 0xF9, 0xFF, 0xCF, 0xFF, 
  0x7F, 0xFE, 0xFF, 0xFB, 0xFF, 0xDF, 0xFF, 0xFF, 0xFE, 0xFF, 0xF3, 0xFF, 
  0x9F, 0xFF, 0xFF, 0xFC, 0xFF, 0xE3, 0xFF, 0x1F, 0xFF, 0xFF, 0xFC, 0xFF, 
  0xE7, 0xFF, 0x3F, 0xFF, 0xFF, 0xF9, 0xFF, 0x0F, 0xFF, 0xFF, 0xF9, 0xFF, 
  0xCF, 0xFF, 0x7F, 0xFE, 0xFF, 0xFB, 0xFF, 0xDF, 0xFF, 0xFF, 0xFE, 0xFF, 
  0xF3, 0xFF, 0x9F, 0xFF, 0xFF, 0xFC, 0xFF, 0xE3, 0xFF, 0x1F, 0xFF, 0xFF, 
  0xFC, 0xFF, 0xE7, 0xFF, 0x3F, 0xFF, 0xFF, 0xF9, 0xFF, 0x0F, 0xFF, 0xFF, 
  0xF9, 0xFF, 0xCF, 0xFF, 0x7F, 0xFE, 0xFF, 0xFB, 0xFF, 0xDF, 0xFF, 0xFF, 
  0xFE, 0xFF, 0xF3, 0xFF, 0x9F, 0xFF, 0xFF, 0xFC, 0xFF, 0xE3, 0xFF, 0x1F, 
  0xFF, 0xFF, 0xFC, 0xFF, 0xE7, 0xFF, 0x3F, 0xFF, 0xFF, 0xF9, 0xFF, 0x0F, 
  0xFF, 0xFF, 0xF9, 0xFF, 0xCF, 0xFF, 0x7F, 0xFE, 0xFF, 0xFB, 0xFF, 0xDF, 
  0xFF, 0xFF, 0xFE, 0xFF, 0xF3, 0xFF, 0x9F, 0xFF, 0xFF, 0xFC, 0xFF, 0xE3, 
  0xFF, 0x1F, 0xFF, 0xFF, 0xFC, 0xFF, 0xE7, 0xFF, 0x3F, 0xFF, 0xFF, 0xF9, 
  0xFF, 0x0F, 0xFF, 0xFF, 0xF9, 0xFF, 0xCF, 0xFF, 0x7F, 0xFE, 0xFF, 0xFB, 
  0xFF, 0xDF, 0xFF, 0xFF, 0xFE, 0xFF, 0xF3, 0xFF, 0x9F, 0xFF, 0xFF, 0xFC, 
  0xFF, 0xE3, 0xFF, 0x1F, 0xFF, 0xFF, 0xFC, 0xFF, 0xE7, 0xFF, 0x3F, 0xFF, 
  0xFF, 0xF9, 0xFF, 0x0F, 0xFF, 0xFF, 0xF9, 0xFF, 0xCF, 0xFF, 0x7F, 0xFE, 
  0xFF, 0xFB, 0xFF, 0xDF, 0xFF, 0xFF, 0xFE, 0xFF, 0xF3, 0xFF, 0x9F, 0xFF, 
  0xFF, 0xFC, 0xFF, 0xE3, 0xFF, 0x1F, 0xFF, 0xFF, 0xFC, 0xFF, 0xE7, 0xFF, 
  0x3F, 0xFF, 0xFF, 0xF9, 0xFF, 0x0F, 0xFF, 0xFF, 0xF9, 0xFF, 0xCF, 0xFF, 
  0x7F, 0xFE, 0xFF, 0xFB, 0xFF, 0xDF, 0xFF, 0xFF, 0xFE, 0xFF, 0xF3, 0xFF, 
  0x9F, 0xFF, 0xFF, 0xFC, 0xFF, 0xE3, 0xFF, 0x1F, 0xFF, 0xFF, 0xFC, 0xFF, 
  0xE7, 0xFF, 0x3F, 0xFF, 0xFF, 0xF9, 0xFF, 0x0F, 0xFF, 0xFF, 0xF9, 0xFF, 
  0xCF, 0xFF, 0x7F, 0xFE, 0xFF, 0xFB, 0xFF, 0xDF, 0xFF, 0xFF, 0xFE, 0xFF, 
  0xF3, 0xFF, 0x9F, 0xFF, 0xFF, 0xFC, 0xFF, 0xE3, 0xFF, 0x1F, 0xFF, 0xFF, 
  0xFC, 0xFF, 0xE7, 0xFF, 0x3F, 0xFF, 0xFF, 0xF9, 0xFF, 0x0F, 0xFF, 0xFF, 
  0xF9, 0xFF, 0xCF, 0xFF, 0x7F, 0xFE, 0xFF, 0xFB, 0xFF, 0xDF, 0xFF, 0xFF, 
  0xFE, 0xFF, 0xF3, 0xFF, 0x9F, 0xFF, 0xFF, 0xFC, 0xFF, 0xE3, 0xFF, 0x1F, 
  0xFF, 0xFF, 0xFC, 0xFF, 0xE7, 0xFF, 0x3F, 0xFF, 0xFF, 0xF9, 0xFF, 0x0F, 
  0xFF, 0xFF, 0xF9, 0xFF, 0xCF, 0xFF, 0x7F, 0xFE, 0xFF, 0xFB, 0xFF, 0xDF, 
  0xFF, 0xFF, 0xFE, 0xFF, 0xF3, 0xFF, 0x9F, 0xFF, 0xFF, 0xFC, 0xFF, 0xE3, 
  0xFF, 0x1F, 0xFF, 0xFF, 0xFC, 0xFF, 0xE7, 0xFF, 0x3F, 0xFF, 0xFF, 0xF9, 
  0xFF, 0x0F, 0xFF, 0xFF, 0xF9, 0xFF, 0xCF, 0xFF, 0x7F, 0xFE, 0xFF, 0xFB, 
  0xFF, 0xDF, 0xFF, 0xFF, 0xFE, 0xFF, 0xF3, 0xFF, 0x9F, 0xFF, 0xFF, 0xFC, 
  0xFF, 0xE3, 0xFF, 0x1F, 0xFF, 0xFF, 0xFC, 0xFF, 0xE7, 0xFF, 0x3F, 0xFF, 
  0xFF, 0xF9, 0xFF, 0x0F, 0xFF, 0xFF, 0xF9, 0xFF, 0xCF, 0xFF, 0x7F, 0xFE, 
  0xFF, 0xFB, 0xFF, 0xDF, 0xFF, 0xFF, 0xFE, 0xFF, 0xF3, 0xFF, 0x9F, 0xFF, 
  0xFF, 0xFC, 0xFF, 0xE3, 0xFF, 0x1F, 0xFF, 0xFF, 0xFC, 0xFF, 0xE7, 0xFF, 
  0x3F, 0xFF, 0xFF, 0xF9, 0xFF, 0x0F, 0xFF, 0xFF, 0xF9, 0xFF, 0xCF, 0xFF, 
  0x7F, 0xFE, 0xFF, 0xFB, 0xFF, 0xDF, 0xFF, 0xFF, 0xFE, 0xFF, 0xF3, 0xFF, 
  0x9F, 0xFF, 0xFF, 0xFC, 0xFF, 0xE3, 0xFF, 0x9F, 0xFF, 0xFF, 0xFC, 0xFF, 
  0xE7, 0xFF, 0x3F, 0xFF, 0xFF, 0xF9, 0xFF, 0x0F, 0xFF, 0xFF, 0xF9, 0xFF, 
  0xCF, 0xFF, 0x7F, 0xFE, 0xFF, 0xFB, 0xFF, 0xDF, 0xFF, 0xFF, 0xFE, 0xFF, 
  0xF3, 0xFF, 0x9F, 0xFF, 0xFF, 0xFC, 0xFF, 0xE3, 0xFF, 0x1F, 0xFF, 0xFF, 
  0xFC, 0xFF, 0xE7, 0xFF, 0x3F, 0xFF, 0xFF, 0xF9, 0xFF, 0x0F, 0x00, 0x00, 
  0x00, 0x00, 0x00, 0x00, 0x00, 0x00, 0x00, 0x00, 0x00, 0x00, 0x00, 0x00, 
  0x00, 0x00, 0x00, 0x00, 0x00, 0x00, 0x00, 0x00, 0x00, 0x00, 0x00, 0x00, 
  0x00, 0x00, 0x00, 0x00, 0x00, 0x00, 0x00, 0x00, 0x00, 0x00, 0x00, 0x00, 
  0x00, 0x00, 0x00, 0x00, 0x00, 0x00, 0x00, 0x00, 0x00, 0x00, 0x00, 0x00, 
  0x00, 0x00, 0x00, 0x00, 0x00, 0x00, 0x00, 0x00, 0x00, 0x00, 0x00, 0x00, 
  0x00, 0x00, 0x00, 0x00, 0x00, 0x00, 0x00, 0x00, 0x00, 0x00, 0x00, 0x00, 
  0x00, 0x00, 0xFF, 0xFF, 0xF9, 0xFF, 0xCF, 0xFF, 0x7F, 0xFF, 0xFF, 0xFB, 
  0xFF, 0xDF, 0xFF, 0xFF, 0xFE, 0xFF, 0xF3, 0xFF, 0x9F, 0xFF, 0xFF, 0xFC, 
  0xFF, 0xE7, 0xFF, 0x9F, 0xFF, 0xFF, 0xFC, 0xFF, 0xE7, 0xFF, 0x3F, 0xFF, 
  0xFF, 0xF9, 0xFF, 0x0F, 0xFF, 0xFF, 0xF9, 0xFF, 0xCF, 0xFF, 0x7F, 0xFE, 
  0xFF, 0xFB, 0xFF, 0xDF, 0xFF, 0xFF, 0xFE, 0xFF, 0xF3, 0xFF, 0x9F, 0xFF, 
  0xFF, 0xFC, 0xFF, 0xE7, 0xFF, 0xBF, 0xFF, 0xFF, 0xFC, 0xFF, 0xE7, 0xFF, 
  0x3F, 0xFF, 0xFF, 0xF9, 0xFF, 0x0F, 0xFF, 0xFF, 0xF9, 0xFF, 0xCF, 0xFF, 
  0x7F, 0xFE, 0xFF, 0xFB, 0xFF, 0xDF, 0xFF, 0xFF, 0xFE, 0xFF, 0xF3, 0xFF, 
  0x9F, 0xFF, 0xFF, 0xFC, 0xFF, 0xE7, 0xFF, 0xBF, 0xFF, 0xFF, 0xFC, 0xFF, 
  0xE7, 0xFF, 0x3F, 0xFF, 0xFF, 0xF9, 0xFF, 0x0F, 0xFF, 0xFF, 0xF9, 0xFF, 
  0xCF, 0xFF, 0x7F, 0xFE, 0xFF, 0xFB, 0xFF, 0xDF, 0xFF, 0xFF, 0xFE, 0xFF, 
  0xF3, 0xFF, 0x9F, 0xFF, 0xFF, 0xFC, 0xFF, 0xE7, 0xFF, 0xBF, 0xFF, 0xFF, 
  0xFC, 0xFF, 0xE7, 0xFF, 0x3F, 0xFF, 0xFF, 0xF9, 0xFF, 0x0F, 0xFF, 0xFF, 
  0xF9, 0xFF, 0xCF, 0xFF, 0x7F, 0xFE, 0xFF, 0xFB, 0xFF, 0xDF, 0xFF, 0xFF, 
  0xFE, 0xFF, 0xF3, 0xFF, 0x9F, 0xFF, 0xFF, 0xFC, 0xFF, 0xE7, 0xFF, 0xBF, 
  0xFF, 0xFF, 0xFC, 0xFF, 0xE7, 0xFF, 0x3F, 0xFF, 0xFF, 0xF9, 0xFF, 0x0F, 
  0xFF, 0xFF, 0xF9, 0xFF, 0xCF, 0xFF, 0x7F, 0xFE, 0xFF, 0xFB, 0xFF, 0xDF, 
  0xFF, 0xFF, 0xFE, 0xFF, 0xF3, 0xFF, 0x9F, 0xFF, 0xFF, 0xFC, 0xFF, 0xE7, 
  0xFF, 0xBF, 0xFF, 0xFF, 0xFC, 0xFF, 0xE7, 0xFF, 0x3F, 0xFF, 0xFF, 0xF9, 
  0xFF, 0x0F, 0xFF, 0xFF, 0xF9, 0xFF, 0xCF, 0xFF, 0x7F, 0xFE, 0xFF, 0xFB, 
  0xFF, 0xDF, 0xFF, 0xFF, 0xFE, 0xFF, 0xF3, 0xFF, 0x9F, 0xFF, 0xFF, 0xFC, 
  0xFF, 0xE7, 0xFF, 0xBF, 0xFF, 0xFF, 0xFC, 0xFF, 0xE7, 0xFF, 0x3F, 0xFF, 
  0xFF, 0xF9, 0xFF, 0x0F, 0xFF, 0xFF, 0xF9, 0xFF, 0xCF, 0xFF, 0x7F, 0xFE, 
  0xFF, 0xFB, 0xFF, 0xDF, 0xFF, 0xFF, 0xFE, 0xFF, 0xF3, 0xFF, 0x9F, 0xFF, 
  0xFF, 0xFC, 0xFF, 0xE7, 0xFF, 0xBF, 0xFF, 0xFF, 0xFC, 0xFF, 0xE7, 0xFF, 
  0x3F, 0xFF, 0xFF, 0xF9, 0xFF, 0x0F, 0xFF, 0xFF, 0xF9, 0xFF, 0xCF, 0xFF, 
  0x7F, 0xFE, 0xFF, 0xFB, 0xFF, 0xDF, 0xFF, 0xFF, 0xFE, 0xFF, 0xF3, 0xFF, 
  0x9F, 0xFF, 0xFF, 0xFC, 0xFF, 0xE7, 0xFF, 0xBF, 0xFF, 0xFF, 0xFC, 0xFF, 
  0xE7, 0xFF, 0x3F, 0xFF, 0xFF, 0xF9, 0xFF, 0x0F, 0xFF, 0xFF, 0xF9, 0xFF, 
  0xCF, 0xFF, 0x7F, 0xFE, 0xFF, 0xFB, 0xFF, 0xDF, 0xFF, 0xFF, 0xFE, 0xFF, 
  0xF3, 0xFF, 0x9F, 0xFF, 0xFF, 0xFC, 0xFF, 0xE7, 0xFF, 0xBF, 0xFF, 0xFF, 
  0xFC, 0xFF, 0xE7, 0xFF, 0x3F, 0xFF, 0xFF, 0xF9, 0xFF, 0x0F, 0xFF, 0xFF, 
  0xF9, 0xFF, 0xCF, 0xFF, 0x7F, 0xFE, 0xFF, 0xFB, 0xFF, 0xDF, 0xFF, 0xFF, 
  0xFE, 0xFF, 0xF3, 0xFF, 0x9F, 0xFF, 0xFF, 0xFC, 0xFF, 0xE7, 0xFF, 0xBF, 
  0xFF, 0xFF, 0xFC, 0xFF, 0xE7, 0xFF, 0x3F, 0xFF, 0xFF, 0xF9, 0xFF, 0x0F, 
  0xFF, 0xFF, 0xF9, 0xFF, 0xCF, 0xFF, 0x7F, 0xFE, 0xFF, 0xFB, 0xFF, 0xDF, 
  0xFF, 0xFF, 0xFE, 0xFF, 0xF3, 0xFF, 0x9F, 0xFF, 0xFF, 0xFC, 0xFF, 0xE7, 
  0xFF, 0xBF, 0xFF, 0xFF, 0xFC, 0xFF, 0xE7, 0xFF, 0x3F, 0xFF, 0xFF, 0xF9, 
  0xFF, 0x0F, 0xFF, 0xFF, 0xF9, 0xFF, 0xCF, 0xFF, 0x7F, 0xFE, 0xFF, 0xFB, 
  0xFF, 0xDF, 0xFF, 0xFF, 0xFE, 0xFF, 0xF3, 0xFF, 0x9F, 0xFF, 0xFF, 0xFC, 
  0xFF, 0xE7, 0xFF, 0xBF, 0xFF, 0xFF, 0xFC, 0xFF, 0xE7, 0xFF, 0x3F, 0xFF, 
  0xFF, 0xF9, 0xFF, 0x0F, 0xFF, 0xFF, 0xF9, 0xFF, 0xCF, 0xFF, 0x7F, 0xFE, 
  0xFF, 0xFB, 0xFF, 0xDF, 0xFF, 0xFF, 0xFE, 0xFF, 0xF3, 0xFF, 0x9F, 0xFF, 
  0xFF, 0xFC, 0xFF, 0xE7, 0xFF, 0xBF, 0xFF, 0xFF, 0xFC, 0xFF, 0xE7, 0xFF, 
  0x3F, 0xFF, 0xFF, 0xF9, 0xFF, 0x0F, 0xFF, 0xFF, 0xF9, 0xFF, 0xCF, 0xFF, 
  0x7F, 0xFE, 0xFF, 0xFB, 0xFF, 0xDF, 0xFF, 0xFF, 0xFE, 0xFF, 0xF3, 0xFF, 
  0x9F, 0xFF, 0xFF, 0xFC, 0xFF, 0xE7, 0xFF, 0xBF, 0xFF, 0xFF, 0xFC, 0xFF, 
  0xE7, 0xFF, 0x3F, 0xFF, 0xFF, 0xF9, 0xFF, 0x0F, 0xFF, 0xFF, 0xF9, 0xFF, 
  0xCF, 0xFF, 0x7F, 0xFE, 0xFF, 0xFB, 0xFF, 0xDF, 0xFF, 0xFF, 0xFE, 0xFF, 
  0xF3, 0xFF, 0x9F, 0xFF, 0xFF, 0xFC, 0xFF, 0xE7, 0xFF, 0xBF, 0xFF, 0xFF, 
  0xFC, 0xFF, 0xE7, 0xFF, 0x3F, 0xFF, 0xFF, 0xF9, 0xFF, 0x0F, 0xFF, 0xFF, 
  0xF9, 0xFF, 0xCF, 0xFF, 0x7F, 0xFE, 0xFF, 0xFB, 0xFF, 0xDF, 0xFF, 0xFF, 
  0xFE, 0xFF, 0xF3, 0xFF, 0x9F, 0xFF, 0xFF, 0xFC, 0xFF, 0xE7, 0xFF, 0x9F, 
  0xFF, 0xFF, 0xFC, 0xFF, 0xE7, 0xFF, 0x3F, 0xFF, 0xFF, 0xF9, 0xFF, 0x0F, 
  0x00, 0x00, 0x00, 0x00, 0x00, 0x00, 0x00, 0x00, 0x00, 0x00, 0x00, 0x00, 
  0x00, 0x00, 0x00, 0x00, 0x00, 0x00, 0x00, 0x00, 0x00, 0x00, 0x00, 0x00, 
  0x00, 0x00, 0x00, 0x00, 0x00, 0x00, 0x00, 0x00, 0x00, 0x00, 0x00, 0x00, 
  0x00, 0x00, 0x00, 0x00, 0x00, 0x00, 0x00, 0x00, 0x00, 0x00, 0x00, 0x00, 
  0x00, 0x00, 0x00, 0x00, 0x00, 0x00, 0x00, 0x00, 0x00, 0x00, 0x00, 0x00, 
  0x00, 0x00, 0x00, 0x00, 0x00, 0x00, 0x00, 0x00, 0x00, 0x00, 0x00, 0x00, 
  0x00, 0x00, 0x00, 0x00, 0xFF, 0xFF, 0xF9, 0xFF, 0xCF, 0xFF, 0x7F, 0xFF, 
  0xFF, 0xFB, 0xFF, 0xDF, 0xFF, 0xFF, 0xFE, 0xFF, 0xF7, 0xFF, 0x9F, 0xFF, 
  0xFF, 0xFC, 0xFF, 0xF7, 0xFF, 0xBF, 0xFF, 0xFF, 0xFD, 0xFF, 0xE7, 0xFF, 
  0x3F, 0xFF, 0xFF, 0xF9, 0xFF, 0x0F, 0xFF, 0xFF, 0xF9, 0xFF, 0xCF, 0xFF, 
  0x7F, 0xFE, 0xFF, 0xFB, 0xFF, 0xDF, 0xFF, 0xFF, 0xFE, 0xFF, 0xF3, 0xFF, 
  0x9F, 0xFF, 0xFF, 0xFC, 0xFF, 0xF7, 0xFF, 0xBF, 0xFF, 0xFF, 0xFD, 0xFF, 
  0xE7, 0xFF, 0x3F, 0xFF, 0xFF, 0xF9, 0xFF, 0x0F, 0xFF, 0xFF, 0xF9, 0xFF, 
  0xCF, 0xFF, 0x7F, 0xFE, 0xFF, 0xFB, 0xFF, 0xDF, 0xFF, 0xFF, 0xFE, 0xFF, 
  0xF3, 0xFF, 0x9F, 0xFF, 0xFF, 0xFC, 0xFF, 0xF7, 0xFF, 0xBF, 0xFF, 0xFF, 
  0xFD, 0xFF, 0xE7, 0xFF, 0x3F, 0xFF, 0xFF, 0xF9, 0xFF, 0x0F, 0xFF, 0xFF, 
  0xF9, 0xFF, 0xCF, 0xFF, 0x7F, 0xFF, 0xFF, 0xFB, 0xFF, 0xDF, 0xFF, 0xFF, 
  0xFE, 0xFF, 0xF3, 0xFF, 0x9F, 0xFF, 0xFF, 0xFC, 0xFF, 0xF7, 0xFF, 0xBF, 
  0xFF, 0xFF, 0xFD, 0xFF, 0xE7, 0xFF, 0x3F, 0xFF, 0xFF, 0xF9, 0xFF, 0x0F, 
  0xFF, 0xFF, 0xF9, 0xFF, 0xCF, 0xFF, 0x7F, 0xFF, 0xFF, 0xFB, 0xFF, 0xDF, 
  0xFF, 0xFF, 0xFE, 0xFF, 0xF3, 0xFF, 0x9F, 0xFF, 0xFF, 0xFC, 0xFF, 0xF7, 
  0xFF, 0xBF, 0xFF, 0xFF, 0xFD, 0xFF, 0xE7, 0xFF, 0x3F, 0xFF, 0xFF, 0xF9, 
  0xFF, 0x0F, 0xFF, 0xFF, 0xF9, 0xFF, 0xCF, 0xFF, 0x7F, 0xFE, 0xFF, 0xFB, 
  0xFF, 0xDF, 0xFF, 0xFF, 0xFE, 0xFF, 0xF3, 0xFF, 0x9F, 0xFF, 0xFF, 0xFC, 
  0xFF, 0xF7, 0xFF, 0xBF, 0xFF, 0xFF, 0xFD, 0xFF, 0xE7, 0xFF, 0x3F, 0xFF, 
  0xFF, 0xF9, 0xFF, 0x0F, 0xFF, 0xFF, 0xF9, 0xFF, 0xCF, 0xFF, 0x7F, 0xFE, 
  0xFF, 0xFB, 0xFF, 0xDF, 0xFF, 0xFF, 0xFE, 0xFF, 0xF3, 0xFF, 0x9F, 0xFF, 
  0xFF, 0xFC, 0xFF, 0xF7, 0xFF, 0xBF, 0xFF, 0xFF, 0xFD, 0xFF, 0xE7, 0xFF, 
  0x3F, 0xFF, 0xFF, 0xF9, 0xFF, 0x0F, 0xFF, 0xFF, 0xF9, 0xFF, 0xCF, 0xFF, 
  0x7F, 0xFE, 0xFF, 0xFB, 0xFF, 0xDF, 0xFF, 0xFF, 0xFE, 0xFF, 0xF3, 0xFF, 
  0x9F, 0xFF, 0xFF, 0xFC, 0xFF, 0xF7, 0xFF, 0xBF, 0xFF, 0xFF, 0xFD, 0xFF, 
  0xE7, 0xFF, 0x3F, 0xFF, 0xFF, 0xF9, 0xFF, 0x0F, 0xFF, 0xFF, 0xF9, 0xFF, 
  0xCF, 0xFF, 0x7F, 0xFE, 0xFF, 0xFB, 0xFF, 0xDF, 0xFF, 0xFF, 0xFE, 0xFF, 
  0xF3, 0xFF, 0x9F, 0xFF, 0xFF, 0xFC, 0xFF, 0xF7, 0xFF, 0xBF, 0xFF, 0xFF, 
  0xFD, 0xFF, 0xE7, 0xFF, 0x3F, 0xFF, 0xFF, 0xF9, 0xFF, 0x0F, 0xFF, 0xFF, 
  0xF9, 0xFF, 0xCF, 0xFF, 0x7F, 0xFE, 0xFF, 0xFB, 0xFF, 0xDF, 0xFF, 0xFF, 
  0xFE, 0xFF, 0xF3, 0xFF, 0x9F, 0xFF, 0xFF, 0xFC, 0xFF, 0xF7, 0xFF, 0xBF, 
  0xFF, 0xFF, 0xFD, 0xFF, 0xE7, 0xFF, 0x3F, 0xFF, 0xFF, 0xF9, 0xFF, 0x0F, 
  0xFF, 0xFF, 0xF9, 0xFF, 0xCF, 0xFF, 0x7F, 0xFE, 0xFF, 0xFB, 0xFF, 0xDF, 
  0xFF, 0xFF, 0xFE, 0xFF, 0xF3, 0xFF, 0x9F, 0xFF, 0xFF, 0xFC, 0xFF, 0xF7, 
  0xFF, 0xBF, 0xFF, 0xFF, 0xFD, 0xFF, 0xE7, 0xFF, 0x3F, 0xFF, 0xFF, 0xF9, 
  0xFF, 0x0F, 0xFF, 0xFF, 0xF9, 0xFF, 0xCF, 0xFF, 0x7F, 0xFE, 0xFF, 0xFB, 
  0xFF, 0xDF, 0xFF, 0xFF, 0xFE, 0xFF, 0xF3, 0xFF, 0x9F, 0xFF, 0xFF, 0xFC, 
  0xFF, 0xF7, 0xFF, 0xBF, 0xFF, 0xFF, 0xFD, 0xFF, 0xE7, 0xFF, 0x3F, 0xFF, 
  0xFF, 0xF9, 0xFF, 0x0F, 0xFF, 0xFF, 0xF9, 0xFF, 0xCF, 0xFF, 0x7F, 0xFE, 
  0xFF, 0xFB, 0xFF, 0xDF, 0xFF, 0xFF, 0xFE, 0xFF, 0xF3, 0xFF, 0x9F, 0xFF, 
  0xFF, 0xFC, 0xFF, 0xF7, 0xFF, 0xBF, 0xFF, 0xFF, 0xFD, 0xFF, 0xE7, 0xFF, 
  0x3F, 0xFF, 0xFF, 0xF9, 0xFF, 0x0F, 0xFF, 0xFF, 0xF9, 0xFF, 0xCF, 0xFF, 
  0x7F, 0xFE, 0xFF, 0xFB, 0xFF, 0xDF, 0xFF, 0xFF, 0xFE, 0xFF, 0xF3, 0xFF, 
  0x9F, 0xFF, 0xFF, 0xFC, 0xFF, 0xF7, 0xFF, 0xBF, 0xFF, 0xFF, 0xFD, 0xFF, 
  0xE7, 0xFF, 0x3F, 0xFF, 0xFF, 0xF9, 0xFF, 0x0F, 0xFF, 0xFF, 0xF9, 0xFF, 
  0xCF, 0xFF, 0x7F, 0xFE, 0xFF, 0xFB, 0xFF, 0xDF, 0xFF, 0xFF, 0xFE, 0xFF, 
  0xF3, 0xFF, 0x9F, 0xFF, 0xFF, 0xFC, 0xFF, 0xF7, 0xFF, 0xBF, 0xFF, 0xFF, 
  0xFD, 0xFF, 0xE7, 0xFF, 0x3F, 0xFF, 0xFF, 0xF9, 0xFF, 0x0F, 0xFF, 0xFF, 
  0xF9, 0xFF, 0xCF, 0xFF, 0x7F, 0xFE, 0xFF, 0xFB, 0xFF, 0xDF, 0xFF, 0xFF, 
  0xFE, 0xFF, 0xF3, 0xFF, 0x9F, 0xFF, 0xFF, 0xFC, 0xFF, 0xF7, 0xFF, 0xBF, 
  0xFF, 0xFF, 0xFD, 0xFF, 0xE7, 0xFF, 0x3F, 0xFF, 0xFF, 0xF9, 0xFF, 0x0F, 
  0xFF, 0xFF, 0xF9, 0xFF, 0xCF, 0xFF, 0x7F, 0xFE, 0xFF, 0xFB, 0xFF, 0xDF, 
  0xFF, 0xFF, 0xFE, 0xFF, 0xF3, 0xFF, 0x9F, 0xFF, 0xFF, 0xFC, 0xFF, 0xF7, 
  0xFF, 0xBF, 0xFF, 0xFF, 0xFD, 0xFF, 0xE7, 0xFF, 0x3F, 0xFF, 0xFF, 0xF9, 
  0xFF, 0x0F, };
